<?xml version="1.0" encoding="utf-8"?>
<!-- Generator: Adobe Illustrator 21.0.0, SVG Export Plug-In . SVG Version: 6.00 Build 0)  -->
<svg version="1.1" id="Capa_1" xmlns="http://www.w3.org/2000/svg" xmlns:xlink="http://www.w3.org/1999/xlink" x="0px" y="0px"
	 viewBox="0 0 18 18" style="enable-background:new 0 0 18 18;" xml:space="preserve">
<style type="text/css">
	.st0{fill:#FFFFFF;}
</style>
<g>
	<g>
		<path class="st0" d="M1.4,15.3c-1.4,0,0-1.5,0-1.5l3.7-4c0.4-0.4,1-1,1.5-0.7c0.4,0.3,0.9,1,1.3,1.4l0.8,0.8c0.4,0.4,0.7,0,0.7,0
			l0.8-0.8c0.4-0.4,0.9-1,1.3-1.3c0.4-0.3,1.1,0.3,1.5,0.7l3.7,4c1.4,1.4,0,1.4,0,1.4S1.4,15.3,1.4,15.3z M2.1,12
			c-0.4,0.4-0.9,1.1-1.2,1.5c-0.4,0.4-0.9,0.8-0.9,0V5.6c0-0.5,0-1.5,0.3-1.4c0.1,0.1,0.3,0.2,0.6,0.5l3,2.4c0.4,0.3,1,0.7,1.2,1
			c0.1,0.2,0.2,0.4,0,0.5L2.1,12z M10.1,9.2C9.7,9.6,9.2,10,9,10S8.3,9.5,7.9,9.2L1.4,4C1,3.6,0.3,3,0.7,2.8C1,2.7,1.4,2.7,1.4,2.7
			h15.2c1.4,0,0.7,0.7,0.7,0.7L10.1,9.2z M17.2,13.5c-0.4-0.4-0.9-1.1-1.2-1.5l-3-3.3c-0.2-0.2-0.1-0.4,0-0.5c0.2-0.3,0.8-0.7,1.2-1
			l2.2-1.8c0.4-0.3,1-0.9,1.3-1.1C18,4.1,18,5.1,18,5.6v7.9C18,14.3,17.6,13.9,17.2,13.5L17.2,13.5z"/>
	</g>
</g>
</svg>
