<?xml version="1.0" encoding="utf-8"?>
<!-- Generator: Adobe Illustrator 21.0.0, SVG Export Plug-In . SVG Version: 6.00 Build 0)  -->
<svg version="1.1" id="Capa_1" xmlns="http://www.w3.org/2000/svg" xmlns:xlink="http://www.w3.org/1999/xlink" x="0px" y="0px"
	 viewBox="0 0 18 18" style="enable-background:new 0 0 18 18;" xml:space="preserve">
<style type="text/css">
	.st0{fill:#FFFFFF;}
</style>
<path class="st0" d="M15.1,11.4c-0.7-0.7-1.5-0.7-2.1,0c-0.4,0.4-1,1-1.5,1.5c-0.1,0.1-0.2,0.1-0.4,0.1c-0.3-0.2-0.7-0.3-1-0.4
	c-1.3-1-2.5-2.1-3.6-3.5C6.1,8.4,5.6,7.7,5.3,6.9c-0.1-0.1,0-0.2,0.1-0.3c0.4-0.4,1-1,1.5-1.5c0.7-0.7,0.7-1.5,0-2.1
	C6.5,2.7,6.1,2.2,5.7,1.9C5.2,1.4,4.9,1,4.4,0.7C3.7,0,3,0,2.3,0.7c-0.4,0.4-0.9,1-1.5,1.5c-0.4,0.4-0.7,1-0.7,1.6
	c-0.1,1,0.1,2,0.4,2.9c0.7,1.9,1.8,3.7,3.1,5.2c1.8,2.1,3.9,3.8,6.5,5c1.1,0.6,2.3,1,3.6,1c0.9,0,1.7-0.2,2.2-0.9
	c0.4-0.4,0.9-0.9,1.3-1.3c0.7-0.7,0.7-1.5,0-2.1C16.7,12.9,15.9,12.2,15.1,11.4L15.1,11.4z"/>
</svg>
