<?xml version="1.0" encoding="utf-8"?>
<!-- Generator: Adobe Illustrator 21.0.0, SVG Export Plug-In . SVG Version: 6.00 Build 0)  -->
<svg version="1.1" id="Capa_1" xmlns="http://www.w3.org/2000/svg" xmlns:xlink="http://www.w3.org/1999/xlink" x="0px" y="0px"
	 viewBox="0 0 44 44" style="enable-background:new 0 0 44 44;" xml:space="preserve">
<style type="text/css">
	.st0{fill:#FFFFFF;}
</style>
<g>
	<path class="st0" d="M0.1,44c0.8-3,1.5-5.7,2.4-8.6c0.2-0.8,0.5-1.5,0.7-2.3c0-0.2,0-0.5-0.1-0.7C1,28.7,0,24.7,0.3,20.5
		c0.6-7.2,3.8-12.8,9.8-16.8c3.9-2.7,8.4-3.9,13.1-3.5c8.6,0.7,15,4.9,18.6,12.6c3.5,7.7,2.7,15.1-2.2,21.9
		c-3.5,4.9-8.4,7.8-14.5,8.7c-4.6,0.7-9.1-0.1-13.2-2.2C11.7,41,11.4,41,11.2,41c-3.5,1-7.1,1.8-10.6,2.8C0.5,43.9,0.3,43.9,0.1,44z
		 M5.3,38.8c0.1,0,0.2,0,0.3-0.1c2-0.5,3.9-1.1,5.9-1.5c0.4-0.1,0.8-0.1,1.1,0.2c4.3,2.6,8.9,3.3,13.8,2c9.2-2.3,15-11.4,13.5-20.7
		C38.3,9.4,29.6,2.4,19.2,3.9c-4.1,0.7-7.7,2.5-10.5,5.6C5,13.7,3.5,18.5,4,24c0.3,2.8,1.2,5.4,2.9,7.8C7.1,32,7.1,32.3,7,32.6
		c-0.2,0.7-0.4,1.3-0.6,2C6,36,5.7,37.4,5.3,38.8z"/>
	<path class="st0" d="M10.9,16.9c0-1.8,0.8-3.3,2-4.6c0.4-0.4,0.9-0.6,1.4-0.6c0.3,0,0.6,0,1,0c0.6-0.1,1,0.2,1.1,0.8
		c0.6,1.4,1.2,3,1.8,4.4c0.1,0.3,0,0.7-0.1,0.9c-0.4,0.7-0.9,1.2-1.3,1.8c-0.3,0.4-0.4,0.8-0.1,1.1c1.8,3,4.2,5.2,7.5,6.4
		c0.5,0.2,0.9,0.1,1.1-0.3c0.6-0.7,1.1-1.3,1.6-2c0.4-0.5,0.6-0.6,1.1-0.4c1.5,0.7,3.1,1.4,4.6,2.2c0.2,0.1,0.4,0.5,0.4,0.7
		c0,2.3-0.8,3.4-3.3,4.5c-1.4,0.6-2.9,0.5-4.3,0c-5.3-1.4-9.1-4.8-12.2-9.1c-1-1.3-1.8-2.8-2.2-4.4C11,18,11,17.4,10.9,16.9z"/>
</g>
</svg>
