<?xml version="1.0" encoding="utf-8"?>
<!-- Generator: Adobe Illustrator 21.0.0, SVG Export Plug-In . SVG Version: 6.00 Build 0)  -->
<svg version="1.1" id="Capa_1" xmlns="http://www.w3.org/2000/svg" xmlns:xlink="http://www.w3.org/1999/xlink" x="0px" y="0px"
	 viewBox="0 0 180 62" style="enable-background:new 0 0 180 62;" xml:space="preserve">
<style type="text/css">
	.st0{fill:#FFFFFF;}
</style>
<g>
	<path class="st0" d="M91.1,33.8H68.6c0.2,2.2,1,3.9,2.3,5.2c1.4,1.2,3,1.9,5,1.9c1.9,0,3.4-0.5,4.6-1.6c1.4-1.3,3.2-2.1,5.1-2.1
		h4.7c-0.9,2.9-2.6,5.4-5.1,7.3c-2.5,1.9-5.6,2.8-9.2,2.8c-2.9,0-5.6-0.7-7.9-2c-2.3-1.3-4.2-3.2-5.5-5.5c-1.3-2.4-2-5.1-2-8.3
		c0-3.2,0.6-5.9,1.9-8.3c1.3-2.4,3.1-4.2,5.4-5.5c2.3-1.3,5-1.9,8-1.9c2.9,0,5.5,0.6,7.8,1.9c2.3,1.2,4.1,3,5.3,5.3
		c1.3,2.3,1.9,4.9,1.9,7.9L91.1,33.8z M83.1,28.6c0-2-0.8-3.6-2.2-4.8c-1.4-1.2-3.1-1.8-5.1-1.8c-1.9,0-3.5,0.6-4.8,1.7
		c-1.3,1.2-2.1,2.8-2.4,4.8H83.1z"/>
	<path class="st0" d="M104.5,12.9v33.9c-4.3,0-7.7-3.5-7.7-7.7V6h0.8C101.4,6,104.5,9.1,104.5,12.9"/>
	<path class="st0" d="M112.6,11.3c-0.9-0.9-1.4-1.9-1.4-3.2c0-1.3,0.5-2.4,1.4-3.2c0.9-0.9,2-1.3,3.4-1.3c1.4,0,2.5,0.4,3.4,1.3
		c0.9,0.9,1.4,1.9,1.4,3.2c0,1.3-0.5,2.4-1.4,3.2c-0.9,0.9-2,1.3-3.4,1.3C114.6,12.6,113.5,12.1,112.6,11.3 M119.8,23.9v22.8h-7.7
		V16.2C116.3,16.2,119.8,19.7,119.8,23.9"/>
	<path class="st0" d="M136.4,22.6v14.8c0,1,0.2,1.8,0.7,2.2c0.5,0.5,1.3,0.7,2.5,0.7c2,0,3.6,1.6,3.6,3.6v2.9h-4.9
		c-6.5,0-9.8-3.2-9.8-9.5V22.6H125v-6.3h3.6c0-4.2,3.4-7.6,7.6-7.6h0.2v7.6h6.8c0,3.5-2.8,6.3-6.3,6.3H136.4z"/>
	<path class="st0" d="M177.2,33.8h-22.5c0.2,2.2,1,3.9,2.3,5.2c1.4,1.2,3,1.9,5,1.9c1.8,0,3.3-0.5,4.5-1.5c1.5-1.3,3.4-2.2,5.4-2.2
		h4.5c-0.9,2.9-2.6,5.4-5.1,7.3c-2.5,1.9-5.6,2.8-9.2,2.8c-2.9,0-5.6-0.7-7.9-2c-2.3-1.3-4.2-3.2-5.5-5.5c-1.3-2.4-2-5.1-2-8.3
		c0-3.2,0.6-5.9,1.9-8.3c1.3-2.4,3.1-4.2,5.4-5.5c2.3-1.3,5-1.9,8-1.9c2.9,0,5.5,0.6,7.8,1.9c2.3,1.2,4.1,3,5.3,5.3
		c1.3,2.3,1.9,4.9,1.9,7.9L177.2,33.8z M169.2,28.6c0-2-0.8-3.6-2.2-4.8c-1.4-1.2-3.1-1.8-5.1-1.8c-1.9,0-3.5,0.6-4.8,1.7
		c-1.3,1.2-2.1,2.8-2.4,4.8H169.2z"/>
	<path class="st0" d="M81.6,9.1l-9.2,4.2v-2.6c0-1.8,1-3.5,2.6-4.3L85,1.2v2.5C85,6,83.7,8.1,81.6,9.1"/>
	<path class="st0" d="M66.1,56.4c-0.3,0.3-0.8,0.5-1.5,0.5h-1.1v2.4h-0.7v-5.6h1.8c0.6,0,1.1,0.2,1.5,0.5c0.3,0.3,0.5,0.7,0.5,1.2
		C66.6,55.7,66.5,56.1,66.1,56.4 M65.6,56c0.2-0.2,0.3-0.4,0.3-0.8c0-0.7-0.4-1-1.2-1h-1.1v2.1h1.1C65.1,56.3,65.4,56.2,65.6,56"/>
	<path class="st0" d="M70.9,59.3L69.6,57h-0.9v2.3h-0.7v-5.6h1.8c0.4,0,0.8,0.1,1.1,0.2c0.3,0.1,0.5,0.3,0.7,0.6
		c0.1,0.2,0.2,0.5,0.2,0.8c0,0.4-0.1,0.7-0.3,1c-0.2,0.3-0.6,0.5-1,0.6l1.4,2.4H70.9z M68.7,56.4h1.1c0.4,0,0.7-0.1,0.9-0.3
		c0.2-0.2,0.3-0.5,0.3-0.8c0-0.3-0.1-0.6-0.3-0.8c-0.2-0.2-0.5-0.3-0.9-0.3h-1.1V56.4z"/>
	<path class="st0" d="M74.4,58.9c-0.4-0.2-0.8-0.6-1-1C73.1,57.5,73,57,73,56.4c0-0.6,0.1-1,0.4-1.5c0.3-0.4,0.6-0.8,1-1
		c0.4-0.2,0.9-0.4,1.4-0.4c0.5,0,1,0.1,1.4,0.4c0.4,0.2,0.8,0.6,1,1c0.2,0.4,0.4,0.9,0.4,1.5c0,0.6-0.1,1.1-0.4,1.5
		c-0.2,0.4-0.6,0.8-1,1c-0.4,0.2-0.9,0.4-1.4,0.4C75.3,59.3,74.8,59.2,74.4,58.9 M76.9,58.4c0.3-0.2,0.6-0.4,0.7-0.8
		c0.2-0.3,0.3-0.7,0.3-1.2c0-0.5-0.1-0.8-0.3-1.2c-0.2-0.3-0.4-0.6-0.7-0.8c-0.3-0.2-0.7-0.3-1.1-0.3c-0.4,0-0.8,0.1-1.1,0.3
		c-0.3,0.2-0.6,0.4-0.7,0.8c-0.2,0.3-0.3,0.7-0.3,1.2c0,0.4,0.1,0.8,0.3,1.2c0.2,0.3,0.4,0.6,0.7,0.8c0.3,0.2,0.7,0.3,1.1,0.3
		C76.2,58.7,76.6,58.6,76.9,58.4"/>
	<polygon class="st0" points="84,53.6 82.1,57.1 82.1,59.3 81.4,59.3 81.4,57.1 79.6,53.6 80.4,53.6 81.8,56.5 83.2,53.6 	"/>
	<polygon class="st0" points="85.9,54.2 85.9,56.1 87.9,56.1 87.9,56.7 85.9,56.7 85.9,58.7 88.2,58.7 88.2,59.3 85.2,59.3 
		85.2,53.6 88.2,53.6 88.2,54.2 	"/>
	<path class="st0" d="M89.8,55c0.2-0.4,0.6-0.8,1-1c0.4-0.2,0.9-0.4,1.4-0.4c0.6,0,1.2,0.1,1.6,0.4c0.5,0.3,0.8,0.7,1,1.3H94
		c-0.2-0.3-0.4-0.6-0.7-0.8c-0.3-0.2-0.6-0.3-1.1-0.3c-0.4,0-0.7,0.1-1.1,0.3c-0.3,0.2-0.6,0.4-0.7,0.8c-0.2,0.3-0.3,0.7-0.3,1.2
		c0,0.4,0.1,0.8,0.3,1.2c0.2,0.3,0.4,0.6,0.7,0.8c0.3,0.2,0.7,0.3,1.1,0.3c0.4,0,0.8-0.1,1.1-0.3c0.3-0.2,0.5-0.4,0.7-0.8h0.9
		c-0.2,0.5-0.5,1-1,1.3c-0.5,0.3-1,0.4-1.6,0.4c-0.5,0-1-0.1-1.4-0.4c-0.4-0.2-0.8-0.6-1-1c-0.2-0.4-0.4-0.9-0.4-1.5
		C89.4,55.9,89.6,55.4,89.8,55"/>
	<polygon class="st0" points="99.8,53.6 99.8,54.2 98.3,54.2 98.3,59.3 97.6,59.3 97.6,54.2 96,54.2 96,53.6 	"/>
	<path class="st0" d="M102.3,58.9c-0.4-0.2-0.8-0.6-1-1c-0.3-0.4-0.4-0.9-0.4-1.5c0-0.6,0.1-1,0.4-1.5c0.3-0.4,0.6-0.8,1-1
		c0.4-0.2,0.9-0.4,1.4-0.4c0.5,0,1,0.1,1.4,0.4c0.4,0.2,0.8,0.6,1,1c0.2,0.4,0.4,0.9,0.4,1.5c0,0.6-0.1,1.1-0.4,1.5
		c-0.2,0.4-0.6,0.8-1,1c-0.4,0.2-0.9,0.4-1.4,0.4C103.2,59.3,102.7,59.2,102.3,58.9 M104.8,58.4c0.3-0.2,0.6-0.4,0.7-0.8
		c0.2-0.3,0.3-0.7,0.3-1.2c0-0.5-0.1-0.8-0.3-1.2c-0.2-0.3-0.4-0.6-0.7-0.8c-0.3-0.2-0.7-0.3-1.1-0.3c-0.4,0-0.8,0.1-1.1,0.3
		c-0.3,0.2-0.6,0.4-0.7,0.8c-0.2,0.3-0.3,0.7-0.3,1.2c0,0.4,0.1,0.8,0.3,1.2c0.2,0.3,0.4,0.6,0.7,0.8c0.3,0.2,0.7,0.3,1.1,0.3
		C104.1,58.7,104.5,58.6,104.8,58.4"/>
	<path class="st0" d="M108.7,59.1c-0.3-0.1-0.5-0.3-0.7-0.6c-0.2-0.2-0.3-0.5-0.3-0.8h0.8c0,0.3,0.1,0.5,0.3,0.7
		c0.2,0.2,0.5,0.3,0.8,0.3c0.4,0,0.6-0.1,0.8-0.3c0.2-0.2,0.3-0.4,0.3-0.7c0-0.2-0.1-0.4-0.2-0.5c-0.1-0.1-0.3-0.2-0.4-0.3
		c-0.2-0.1-0.4-0.1-0.7-0.2c-0.4-0.1-0.7-0.2-0.9-0.3c-0.2-0.1-0.4-0.2-0.6-0.5c-0.2-0.2-0.2-0.5-0.2-0.8c0-0.3,0.1-0.6,0.2-0.8
		c0.2-0.2,0.4-0.4,0.7-0.6c0.3-0.1,0.6-0.2,1-0.2c0.5,0,1,0.1,1.3,0.4c0.3,0.3,0.5,0.6,0.6,1.1h-0.8c0-0.2-0.1-0.4-0.3-0.6
		c-0.2-0.2-0.5-0.2-0.8-0.2c-0.3,0-0.6,0.1-0.8,0.2c-0.2,0.2-0.3,0.4-0.3,0.7c0,0.2,0.1,0.4,0.2,0.5c0.1,0.1,0.3,0.2,0.4,0.3
		c0.2,0.1,0.4,0.1,0.7,0.2c0.4,0.1,0.7,0.2,0.9,0.3c0.2,0.1,0.4,0.3,0.6,0.5c0.2,0.2,0.2,0.5,0.2,0.8c0,0.3-0.1,0.5-0.2,0.8
		c-0.1,0.2-0.4,0.4-0.6,0.6c-0.3,0.2-0.6,0.2-1,0.2C109.3,59.3,109,59.3,108.7,59.1"/>
	<rect x="115.6" y="53.6" class="st0" width="0.7" height="5.6"/>
	<polygon class="st0" points="122.5,59.3 121.7,59.3 118.8,54.8 118.8,59.3 118,59.3 118,53.6 118.8,53.6 121.7,58.1 121.7,53.6 
		122.5,53.6 	"/>
	<polygon class="st0" points="129.8,53.7 129.8,59.3 129.1,59.3 129.1,55.1 127.2,59.3 126.7,59.3 124.9,55.1 124.9,59.3 
		124.1,59.3 124.1,53.7 124.9,53.7 127,58.3 129.1,53.7 	"/>
	<path class="st0" d="M132.6,58.9c-0.4-0.2-0.8-0.6-1-1c-0.3-0.4-0.4-0.9-0.4-1.5c0-0.6,0.1-1,0.4-1.5c0.3-0.4,0.6-0.8,1-1
		c0.4-0.2,0.9-0.4,1.4-0.4c0.5,0,1,0.1,1.4,0.4c0.4,0.2,0.8,0.6,1,1c0.2,0.4,0.4,0.9,0.4,1.5c0,0.6-0.1,1.1-0.4,1.5
		c-0.2,0.4-0.6,0.8-1,1c-0.4,0.2-0.9,0.4-1.4,0.4C133.5,59.3,133,59.2,132.6,58.9 M135.1,58.4c0.3-0.2,0.6-0.4,0.7-0.8
		c0.2-0.3,0.3-0.7,0.3-1.2c0-0.5-0.1-0.8-0.3-1.2c-0.2-0.3-0.4-0.6-0.7-0.8c-0.3-0.2-0.7-0.3-1.1-0.3c-0.4,0-0.8,0.1-1.1,0.3
		c-0.3,0.2-0.6,0.4-0.7,0.8c-0.2,0.3-0.3,0.7-0.3,1.2c0,0.4,0.1,0.8,0.3,1.2c0.2,0.3,0.4,0.6,0.7,0.8c0.3,0.2,0.7,0.3,1.1,0.3
		C134.4,58.7,134.8,58.6,135.1,58.4"/>
	<path class="st0" d="M141.6,56.6c0.2,0.1,0.3,0.3,0.4,0.5c0.1,0.2,0.1,0.4,0.1,0.6c0,0.3-0.1,0.5-0.2,0.8c-0.1,0.2-0.4,0.4-0.6,0.5
		c-0.3,0.1-0.6,0.2-1,0.2h-2.1v-5.6h2c0.4,0,0.7,0.1,1,0.2c0.3,0.1,0.5,0.3,0.6,0.5c0.1,0.2,0.2,0.5,0.2,0.7c0,0.3-0.1,0.6-0.3,0.8
		c-0.2,0.2-0.4,0.4-0.7,0.5C141.3,56.4,141.5,56.5,141.6,56.6 M139,56.1h1.2c0.3,0,0.6-0.1,0.8-0.2c0.2-0.2,0.3-0.4,0.3-0.7
		c0-0.3-0.1-0.5-0.3-0.7c-0.2-0.2-0.5-0.2-0.8-0.2H139V56.1z M141.2,58.4c0.2-0.2,0.3-0.4,0.3-0.7c0-0.3-0.1-0.6-0.3-0.7
		c-0.2-0.2-0.5-0.3-0.9-0.3H139v2h1.3C140.7,58.7,140.9,58.6,141.2,58.4"/>
	<rect x="143.6" y="53.6" class="st0" width="0.7" height="5.6"/>
	<polygon class="st0" points="146.8,58.7 148.7,58.7 148.7,59.3 146,59.3 146,53.6 146.8,53.6 	"/>
	<rect x="149.9" y="53.6" class="st0" width="0.7" height="5.6"/>
	<path class="st0" d="M155.6,58h-2.5l-0.5,1.3H152l2-5.6h0.8l2,5.6h-0.8L155.6,58z M155.4,57.4l-1-2.8l-1,2.8H155.4z"/>
	<path class="st0" d="M161.1,59.3l-1.3-2.3h-0.9v2.3h-0.7v-5.6h1.8c0.4,0,0.8,0.1,1.1,0.2c0.3,0.1,0.5,0.3,0.7,0.6
		c0.1,0.2,0.2,0.5,0.2,0.8c0,0.4-0.1,0.7-0.3,1c-0.2,0.3-0.6,0.5-1,0.6l1.4,2.4H161.1z M158.9,56.4h1.1c0.4,0,0.7-0.1,0.9-0.3
		c0.2-0.2,0.3-0.5,0.3-0.8c0-0.3-0.1-0.6-0.3-0.8c-0.2-0.2-0.5-0.3-0.9-0.3h-1.1V56.4z"/>
	<rect x="163.5" y="53.6" class="st0" width="0.7" height="5.6"/>
	<path class="st0" d="M167,58.9c-0.4-0.2-0.8-0.6-1-1c-0.3-0.4-0.4-0.9-0.4-1.5c0-0.6,0.1-1,0.4-1.5c0.3-0.4,0.6-0.8,1-1
		c0.4-0.2,0.9-0.4,1.4-0.4c0.5,0,1,0.1,1.4,0.4c0.4,0.2,0.8,0.6,1,1c0.2,0.4,0.4,0.9,0.4,1.5c0,0.6-0.1,1.1-0.4,1.5
		c-0.2,0.4-0.6,0.8-1,1c-0.4,0.2-0.9,0.4-1.4,0.4C167.9,59.3,167.4,59.2,167,58.9 M169.5,58.4c0.3-0.2,0.6-0.4,0.7-0.8
		c0.2-0.3,0.3-0.7,0.3-1.2c0-0.5-0.1-0.8-0.3-1.2c-0.2-0.3-0.4-0.6-0.7-0.8c-0.3-0.2-0.7-0.3-1.1-0.3c-0.4,0-0.8,0.1-1.1,0.3
		c-0.3,0.2-0.6,0.4-0.7,0.8c-0.2,0.3-0.3,0.7-0.3,1.2c0,0.4,0.1,0.8,0.3,1.2c0.2,0.3,0.4,0.6,0.7,0.8c0.3,0.2,0.7,0.3,1.1,0.3
		C168.8,58.7,169.2,58.6,169.5,58.4"/>
	<path class="st0" d="M173.4,59.1c-0.3-0.1-0.5-0.3-0.7-0.6c-0.2-0.2-0.3-0.5-0.3-0.8h0.8c0,0.3,0.1,0.5,0.3,0.7
		c0.2,0.2,0.5,0.3,0.8,0.3c0.4,0,0.6-0.1,0.8-0.3c0.2-0.2,0.3-0.4,0.3-0.7c0-0.2-0.1-0.4-0.2-0.5c-0.1-0.1-0.3-0.2-0.4-0.3
		c-0.2-0.1-0.4-0.1-0.7-0.2c-0.4-0.1-0.7-0.2-0.9-0.3c-0.2-0.1-0.4-0.2-0.6-0.5c-0.2-0.2-0.2-0.5-0.2-0.8c0-0.3,0.1-0.6,0.2-0.8
		c0.2-0.2,0.4-0.4,0.7-0.6c0.3-0.1,0.6-0.2,1-0.2c0.5,0,1,0.1,1.3,0.4c0.3,0.3,0.5,0.6,0.6,1.1h-0.8c0-0.2-0.1-0.4-0.3-0.6
		c-0.2-0.2-0.5-0.2-0.8-0.2c-0.3,0-0.6,0.1-0.8,0.2c-0.2,0.2-0.3,0.4-0.3,0.7c0,0.2,0.1,0.4,0.2,0.5c0.1,0.1,0.3,0.2,0.4,0.3
		c0.2,0.1,0.4,0.1,0.7,0.2c0.4,0.1,0.7,0.2,0.9,0.3c0.2,0.1,0.4,0.3,0.6,0.5c0.2,0.2,0.2,0.5,0.2,0.8c0,0.3-0.1,0.5-0.2,0.8
		c-0.1,0.2-0.4,0.4-0.6,0.6c-0.3,0.2-0.6,0.2-1,0.2C174.1,59.3,173.7,59.3,173.4,59.1"/>
	<path class="st0" d="M49.1,20.5c-0.2-0.7-0.4-1.4-0.6-2.3c-0.7-2.3-1.8-4.5-3.1-6.5C44.7,10.7,44,9.8,43.2,9c0,0,0,0,0,0
		c-4.4-4.8-10.5-7.4-16.7-7.5c0,0,0,0,0,0c-0.1,0-0.3,0-0.4,0c-8,0-15,4.1-19.2,10.2c-2.6,3.7-4.1,8.3-4.1,13.2
		c0,0.9,0.1,2.7,0.1,2.7c0.4,3.4,1.7,6.5,3.4,9.7c3.3,6,7.7,10.9,12.1,16c3.2,3.6,7.7,7.5,7.7,7.5s4.3-3.6,8.1-7.5
		c4.2-4.3,9-10.2,12-16.7c0.2-0.4,0.4-0.9,0.6-1.3c0-0.1,0.2-0.3,0.2-0.6H42c-2,0-2.9,0.3-3.6,0.8c-0.5,0.5-1,1-1.6,1.5
		c-0.2,0.2-0.5,0.4-0.7,0.6c-0.8,0.6-1.8,1.1-2.8,1.6c-2,0.9-4.3,1.4-6.7,1.4c-2.9,0-5.6-0.8-8-2.1c-2.5-1.4-4.4-3.3-5.7-5.5
		c-1.5-2.5-2.4-5.4-2.4-8.5c0-8.9,7.2-16.1,16.1-16.1c1,0,2.1,0.1,3,0.3c0.6,0.1,1.2,0.3,1.8,0.5c5.3,1.7,9.5,6.1,10.8,11.6h-0.4
		h-1.4H26.2c0.2,4.9,3.8,7,7.5,7h8.8h3.3c1,0,2.7-0.3,3.5-2.3c0.2-0.4,0.3-0.8,0.3-1.3C49.6,22.5,49.3,21.6,49.1,20.5"/>
</g>
</svg>
