<?xml version="1.0" encoding="utf-8"?>
<!-- Generator: Adobe Illustrator 21.0.0, SVG Export Plug-In . SVG Version: 6.00 Build 0)  -->
<svg version="1.1" id="Capa_1" xmlns="http://www.w3.org/2000/svg" xmlns:xlink="http://www.w3.org/1999/xlink" x="0px" y="0px"
	 viewBox="0 0 22 22" style="enable-background:new 0 0 22 22;" xml:space="preserve">
<style type="text/css">
	.st0{fill:#3D378C;}
</style>
<g>
	<g>
		<path class="st0" d="M9.2,18.2c-1.2,0-2.4-0.2-3.5-0.7c-1.1-0.5-2.1-1.1-2.9-1.9c-0.8-0.8-1.5-1.8-1.9-2.9
			c-0.5-1.1-0.7-2.3-0.7-3.5s0.2-2.4,0.7-3.5c0.5-1.1,1.1-2.1,1.9-2.9c0.8-0.8,1.8-1.5,2.9-1.9C6.7,0.2,7.9,0,9.2,0s2.4,0.2,3.5,0.7
			c1.1,0.5,2.1,1.1,2.9,1.9c0.8,0.8,1.5,1.8,1.9,2.9c0.5,1.1,0.7,2.3,0.7,3.5s-0.2,2.4-0.7,3.5c-0.5,1.1-1.1,2.1-1.9,2.9
			c-0.8,0.8-1.8,1.5-2.9,1.9C11.6,18,10.4,18.2,9.2,18.2z M9.2,2.7c-3.5,0-6.4,2.9-6.4,6.4c0,3.5,2.9,6.4,6.4,6.4
			c3.5,0,6.4-2.9,6.4-6.4C15.5,5.6,12.7,2.7,9.2,2.7z"/>
	</g>
	<g>
		<path class="st0" d="M20.1,22c-0.5,0-1-0.2-1.3-0.6l-5-5.2c-0.7-0.7-0.7-1.9,0.1-2.6c0.7-0.7,1.9-0.7,2.6,0.1l5,5.2
			c0.7,0.7,0.7,1.9-0.1,2.6C21,21.8,20.5,22,20.1,22z"/>
	</g>
</g>
</svg>
