<?xml version="1.0" encoding="utf-8"?>
<!-- Generator: Adobe Illustrator 21.0.0, SVG Export Plug-In . SVG Version: 6.00 Build 0)  -->
<svg version="1.1" id="Capa_1" xmlns="http://www.w3.org/2000/svg" xmlns:xlink="http://www.w3.org/1999/xlink" x="0px" y="0px"
	 viewBox="0 0 180 62" style="enable-background:new 0 0 180 62;" xml:space="preserve">
<style type="text/css">
	.st0{fill:#524C9B;}
</style>
<g>
	<path class="st0" d="M91.2,33.9H67.8c0.2,2.3,1,4.1,2.4,5.4c1.4,1.3,3.1,1.9,5.2,1.9c2,0,3.6-0.6,4.8-1.7c1.5-1.3,3.3-2.1,5.3-2.1
		h4.9c-0.9,3-2.7,5.5-5.2,7.5c-2.6,2-5.8,2.9-9.5,2.9c-3,0-5.8-0.7-8.2-2c-2.4-1.3-4.3-3.3-5.6-5.7c-1.3-2.5-2-5.3-2-8.6
		c0-3.3,0.7-6.1,2-8.6c1.3-2.5,3.2-4.4,5.6-5.7c2.4-1.3,5.2-2,8.3-2c3,0,5.7,0.6,8.1,1.9c2.4,1.3,4.2,3.1,5.5,5.5
		c1.3,2.4,2,5.1,2,8.2L91.2,33.9z M82.9,28.5c0-2.1-0.8-3.7-2.2-4.9c-1.4-1.2-3.2-1.9-5.3-1.9c-2,0-3.6,0.6-5,1.8
		c-1.3,1.2-2.2,2.9-2.5,5H82.9z"/>
	<path class="st0" d="M105,12.3v35c-4.4,0-8-3.6-8-8V5.1h0.8C101.7,5.1,105,8.3,105,12.3"/>
	<path class="st0" d="M113.4,10.6c-0.9-0.9-1.4-2-1.4-3.3c0-1.3,0.5-2.4,1.4-3.3c0.9-0.9,2.1-1.3,3.5-1.3c1.4,0,2.6,0.4,3.5,1.3
		c0.9,0.9,1.4,2,1.4,3.3c0,1.3-0.5,2.4-1.4,3.3c-0.9,0.9-2.1,1.3-3.5,1.3C115.5,11.9,114.3,11.5,113.4,10.6 M120.8,23.7v23.6h-8
		V15.7C117.2,15.7,120.8,19.3,120.8,23.7"/>
	<path class="st0" d="M138,22.3v15.3c0,1.1,0.3,1.8,0.8,2.3c0.5,0.5,1.4,0.7,2.6,0.7c2,0,3.7,1.7,3.7,3.7v3h-5
		c-6.7,0-10.1-3.3-10.1-9.8V22.3h-3.8v-6.6h3.8c0-4.3,3.5-7.8,7.8-7.8h0.2v7.8h7.1c0,3.6-2.9,6.6-6.6,6.6H138z"/>
	<path class="st0" d="M180.2,33.9h-23.3c0.2,2.3,1,4.1,2.4,5.4c1.4,1.3,3.1,1.9,5.2,1.9c1.9,0,3.5-0.5,4.7-1.6
		c1.6-1.4,3.5-2.2,5.6-2.2h4.7c-0.9,3-2.7,5.5-5.2,7.5c-2.6,2-5.8,2.9-9.5,2.9c-3,0-5.8-0.7-8.2-2c-2.4-1.3-4.3-3.3-5.6-5.7
		c-1.3-2.5-2-5.3-2-8.6c0-3.3,0.7-6.1,2-8.6c1.3-2.5,3.2-4.4,5.6-5.7c2.4-1.3,5.2-2,8.3-2c3,0,5.7,0.6,8.1,1.9
		c2.4,1.3,4.2,3.1,5.5,5.5c1.3,2.4,2,5.1,2,8.2L180.2,33.9z M171.9,28.5c0-2.1-0.8-3.7-2.2-4.9c-1.4-1.2-3.2-1.9-5.3-1.9
		c-2,0-3.6,0.6-5,1.8c-1.3,1.2-2.2,2.9-2.5,5H171.9z"/>
	<path class="st0" d="M81.3,8.4l-9.5,4.4V10c0-1.9,1-3.6,2.7-4.4l10.4-5.4v2.6C84.9,5.2,83.5,7.4,81.3,8.4"/>
	<path class="st0" d="M65.3,57.3c-0.3,0.3-0.8,0.5-1.5,0.5h-1.1v2.4h-0.8v-5.8h1.9c0.7,0,1.2,0.2,1.5,0.5c0.3,0.3,0.5,0.7,0.5,1.2
		C65.8,56.6,65.7,57,65.3,57.3 M64.7,56.9c0.2-0.2,0.3-0.4,0.3-0.8c0-0.7-0.4-1.1-1.2-1.1h-1.1v2.1h1.1
		C64.2,57.2,64.5,57.1,64.7,56.9"/>
	<path class="st0" d="M70.3,60.2l-1.4-2.4h-0.9v2.4h-0.8v-5.8h1.9c0.4,0,0.8,0.1,1.1,0.2c0.3,0.2,0.5,0.4,0.7,0.6
		c0.2,0.3,0.2,0.5,0.2,0.9c0,0.4-0.1,0.8-0.3,1.1c-0.2,0.3-0.6,0.5-1,0.6l1.5,2.4H70.3z M67.9,57.2h1.1c0.4,0,0.7-0.1,0.9-0.3
		c0.2-0.2,0.3-0.5,0.3-0.8c0-0.3-0.1-0.6-0.3-0.8c-0.2-0.2-0.5-0.3-0.9-0.3h-1.1V57.2z"/>
	<path class="st0" d="M73.9,59.9c-0.4-0.3-0.8-0.6-1.1-1.1c-0.3-0.5-0.4-1-0.4-1.5c0-0.6,0.1-1.1,0.4-1.5c0.3-0.5,0.6-0.8,1.1-1.1
		c0.4-0.3,0.9-0.4,1.5-0.4c0.5,0,1,0.1,1.5,0.4c0.4,0.3,0.8,0.6,1.1,1.1c0.3,0.5,0.4,1,0.4,1.5s-0.1,1.1-0.4,1.5
		c-0.3,0.5-0.6,0.8-1.1,1.1c-0.4,0.3-0.9,0.4-1.5,0.4C74.8,60.3,74.3,60.2,73.9,59.9 M76.4,59.3c0.3-0.2,0.6-0.5,0.8-0.8
		c0.2-0.4,0.3-0.8,0.3-1.2c0-0.5-0.1-0.9-0.3-1.2c-0.2-0.3-0.4-0.6-0.8-0.8c-0.3-0.2-0.7-0.3-1.1-0.3c-0.4,0-0.8,0.1-1.1,0.3
		c-0.3,0.2-0.6,0.5-0.8,0.8c-0.2,0.3-0.3,0.8-0.3,1.2c0,0.5,0.1,0.9,0.3,1.2c0.2,0.4,0.4,0.6,0.8,0.8c0.3,0.2,0.7,0.3,1.1,0.3
		C75.7,59.6,76.1,59.5,76.4,59.3"/>
	<polygon class="st0" points="83.8,54.4 81.9,58 81.9,60.2 81.1,60.2 81.1,58 79.2,54.4 80,54.4 81.5,57.3 82.9,54.4 	"/>
	<polygon class="st0" points="85.8,55 85.8,57 87.9,57 87.9,57.6 85.8,57.6 85.8,59.6 88.1,59.6 88.1,60.2 85,60.2 85,54.4 
		88.1,54.4 88.1,55 	"/>
	<path class="st0" d="M89.8,55.8c0.3-0.5,0.6-0.8,1.1-1.1c0.4-0.3,0.9-0.4,1.5-0.4c0.6,0,1.2,0.2,1.7,0.5c0.5,0.3,0.8,0.7,1,1.3
		h-0.9c-0.2-0.4-0.4-0.6-0.7-0.8c-0.3-0.2-0.7-0.3-1.1-0.3c-0.4,0-0.8,0.1-1.1,0.3c-0.3,0.2-0.6,0.5-0.8,0.8
		c-0.2,0.3-0.3,0.8-0.3,1.2c0,0.5,0.1,0.9,0.3,1.2c0.2,0.3,0.4,0.6,0.8,0.8c0.3,0.2,0.7,0.3,1.1,0.3c0.4,0,0.8-0.1,1.1-0.3
		c0.3-0.2,0.5-0.5,0.7-0.8H95c-0.2,0.6-0.6,1-1,1.3c-0.5,0.3-1,0.5-1.7,0.5c-0.5,0-1-0.1-1.5-0.4c-0.4-0.3-0.8-0.6-1.1-1.1
		c-0.3-0.5-0.4-1-0.4-1.5C89.4,56.7,89.5,56.2,89.8,55.8"/>
	<polygon class="st0" points="100.2,54.4 100.2,55 98.6,55 98.6,60.2 97.8,60.2 97.8,55 96.2,55 96.2,54.4 	"/>
	<path class="st0" d="M102.7,59.9c-0.4-0.3-0.8-0.6-1.1-1.1c-0.3-0.5-0.4-1-0.4-1.5c0-0.6,0.1-1.1,0.4-1.5c0.3-0.5,0.6-0.8,1.1-1.1
		c0.4-0.3,0.9-0.4,1.5-0.4c0.5,0,1,0.1,1.5,0.4c0.4,0.3,0.8,0.6,1.1,1.1c0.3,0.5,0.4,1,0.4,1.5s-0.1,1.1-0.4,1.5
		c-0.3,0.5-0.6,0.8-1.1,1.1c-0.4,0.3-0.9,0.4-1.5,0.4C103.6,60.3,103.1,60.2,102.7,59.9 M105.3,59.3c0.3-0.2,0.6-0.5,0.8-0.8
		c0.2-0.4,0.3-0.8,0.3-1.2c0-0.5-0.1-0.9-0.3-1.2c-0.2-0.3-0.4-0.6-0.8-0.8c-0.3-0.2-0.7-0.3-1.1-0.3c-0.4,0-0.8,0.1-1.1,0.3
		c-0.3,0.2-0.6,0.5-0.8,0.8c-0.2,0.3-0.3,0.8-0.3,1.2c0,0.5,0.1,0.9,0.3,1.2c0.2,0.4,0.4,0.6,0.8,0.8c0.3,0.2,0.7,0.3,1.1,0.3
		C104.6,59.6,104.9,59.5,105.3,59.3"/>
	<path class="st0" d="M109.3,60.1c-0.3-0.1-0.5-0.3-0.7-0.6c-0.2-0.2-0.3-0.5-0.3-0.8h0.8c0,0.3,0.1,0.5,0.3,0.7
		c0.2,0.2,0.5,0.3,0.9,0.3c0.4,0,0.6-0.1,0.9-0.3c0.2-0.2,0.3-0.4,0.3-0.7c0-0.2-0.1-0.4-0.2-0.5c-0.1-0.1-0.3-0.2-0.5-0.3
		c-0.2-0.1-0.4-0.2-0.7-0.2c-0.4-0.1-0.7-0.2-0.9-0.3c-0.2-0.1-0.4-0.3-0.6-0.5c-0.2-0.2-0.2-0.5-0.2-0.9c0-0.3,0.1-0.6,0.2-0.8
		c0.2-0.2,0.4-0.4,0.7-0.6c0.3-0.1,0.6-0.2,1-0.2c0.5,0,1,0.1,1.3,0.4c0.3,0.3,0.5,0.6,0.6,1.1h-0.8c0-0.2-0.1-0.4-0.4-0.6
		c-0.2-0.2-0.5-0.3-0.8-0.3c-0.3,0-0.6,0.1-0.8,0.2c-0.2,0.2-0.3,0.4-0.3,0.7c0,0.2,0.1,0.4,0.2,0.5c0.1,0.1,0.3,0.2,0.4,0.3
		c0.2,0.1,0.4,0.1,0.7,0.2c0.4,0.1,0.7,0.2,0.9,0.3c0.2,0.1,0.4,0.3,0.6,0.5c0.2,0.2,0.3,0.5,0.3,0.9c0,0.3-0.1,0.6-0.2,0.8
		c-0.2,0.3-0.4,0.5-0.7,0.6c-0.3,0.2-0.6,0.2-1,0.2C110,60.3,109.6,60.2,109.3,60.1"/>
	<rect x="116.5" y="54.4" class="st0" width="0.8" height="5.8"/>
	<polygon class="st0" points="123.6,60.2 122.8,60.2 119.7,55.6 119.7,60.2 119,60.2 119,54.4 119.7,54.4 122.8,59 122.8,54.4 
		123.6,54.4 	"/>
	<polygon class="st0" points="131.2,54.4 131.2,60.2 130.4,60.2 130.4,55.9 128.5,60.2 128,60.2 126,55.9 126,60.2 125.3,60.2 
		125.3,54.4 126.1,54.4 128.2,59.2 130.4,54.4 	"/>
	<path class="st0" d="M134.1,59.9c-0.4-0.3-0.8-0.6-1.1-1.1c-0.3-0.5-0.4-1-0.4-1.5c0-0.6,0.1-1.1,0.4-1.5c0.3-0.5,0.6-0.8,1.1-1.1
		c0.4-0.3,0.9-0.4,1.5-0.4c0.5,0,1,0.1,1.5,0.4c0.4,0.3,0.8,0.6,1.1,1.1c0.3,0.5,0.4,1,0.4,1.5s-0.1,1.1-0.4,1.5
		c-0.3,0.5-0.6,0.8-1.1,1.1c-0.4,0.3-0.9,0.4-1.5,0.4C135,60.3,134.5,60.2,134.1,59.9 M136.7,59.3c0.3-0.2,0.6-0.5,0.8-0.8
		c0.2-0.4,0.3-0.8,0.3-1.2c0-0.5-0.1-0.9-0.3-1.2c-0.2-0.3-0.4-0.6-0.8-0.8c-0.3-0.2-0.7-0.3-1.1-0.3c-0.4,0-0.8,0.1-1.1,0.3
		c-0.3,0.2-0.6,0.5-0.8,0.8c-0.2,0.3-0.3,0.8-0.3,1.2c0,0.5,0.1,0.9,0.3,1.2c0.2,0.4,0.4,0.6,0.8,0.8c0.3,0.2,0.7,0.3,1.1,0.3
		C136,59.6,136.3,59.5,136.7,59.3"/>
	<path class="st0" d="M143.4,57.5c0.2,0.1,0.3,0.3,0.4,0.5c0.1,0.2,0.2,0.4,0.2,0.7c0,0.3-0.1,0.6-0.2,0.8c-0.2,0.2-0.4,0.4-0.7,0.6
		c-0.3,0.1-0.6,0.2-1,0.2h-2.2v-5.8h2.1c0.4,0,0.7,0.1,1,0.2c0.3,0.1,0.5,0.3,0.6,0.5c0.1,0.2,0.2,0.5,0.2,0.8
		c0,0.3-0.1,0.6-0.3,0.9c-0.2,0.2-0.4,0.4-0.7,0.5C143,57.3,143.2,57.3,143.4,57.5 M140.7,56.9h1.3c0.4,0,0.6-0.1,0.8-0.3
		c0.2-0.2,0.3-0.4,0.3-0.7c0-0.3-0.1-0.5-0.3-0.7c-0.2-0.2-0.5-0.3-0.8-0.3h-1.3V56.9z M142.9,59.3c0.2-0.2,0.3-0.4,0.3-0.7
		c0-0.3-0.1-0.6-0.3-0.8c-0.2-0.2-0.5-0.3-0.9-0.3h-1.3v2.1h1.3C142.4,59.6,142.7,59.5,142.9,59.3"/>
	<rect x="145.5" y="54.4" class="st0" width="0.8" height="5.8"/>
	<polygon class="st0" points="148.7,59.6 150.7,59.6 150.7,60.2 147.9,60.2 147.9,54.4 148.7,54.4 	"/>
	<rect x="152" y="54.4" class="st0" width="0.8" height="5.8"/>
	<path class="st0" d="M157.9,58.9h-2.5l-0.5,1.3h-0.8l2.1-5.8h0.9l2.1,5.8h-0.8L157.9,58.9z M157.7,58.3l-1.1-2.9l-1.1,2.9H157.7z"
		/>
	<path class="st0" d="M163.6,60.2l-1.4-2.4h-0.9v2.4h-0.8v-5.8h1.9c0.4,0,0.8,0.1,1.1,0.2c0.3,0.2,0.5,0.4,0.7,0.6
		c0.2,0.3,0.2,0.5,0.2,0.9c0,0.4-0.1,0.8-0.3,1.1c-0.2,0.3-0.6,0.5-1,0.6l1.5,2.4H163.6z M161.3,57.2h1.1c0.4,0,0.7-0.1,0.9-0.3
		c0.2-0.2,0.3-0.5,0.3-0.8c0-0.3-0.1-0.6-0.3-0.8c-0.2-0.2-0.5-0.3-0.9-0.3h-1.1V57.2z"/>
	<rect x="166" y="54.4" class="st0" width="0.8" height="5.8"/>
	<path class="st0" d="M169.6,59.9c-0.4-0.3-0.8-0.6-1.1-1.1c-0.3-0.5-0.4-1-0.4-1.5c0-0.6,0.1-1.1,0.4-1.5c0.3-0.5,0.6-0.8,1.1-1.1
		c0.4-0.3,0.9-0.4,1.5-0.4c0.5,0,1,0.1,1.5,0.4c0.4,0.3,0.8,0.6,1.1,1.1c0.3,0.5,0.4,1,0.4,1.5s-0.1,1.1-0.4,1.5
		c-0.3,0.5-0.6,0.8-1.1,1.1c-0.4,0.3-0.9,0.4-1.5,0.4C170.6,60.3,170.1,60.2,169.6,59.9 M172.2,59.3c0.3-0.2,0.6-0.5,0.8-0.8
		c0.2-0.4,0.3-0.8,0.3-1.2c0-0.5-0.1-0.9-0.3-1.2c-0.2-0.3-0.4-0.6-0.8-0.8c-0.3-0.2-0.7-0.3-1.1-0.3c-0.4,0-0.8,0.1-1.1,0.3
		c-0.3,0.2-0.6,0.5-0.8,0.8c-0.2,0.3-0.3,0.8-0.3,1.2c0,0.5,0.1,0.9,0.3,1.2c0.2,0.4,0.4,0.6,0.8,0.8c0.3,0.2,0.7,0.3,1.1,0.3
		C171.5,59.6,171.9,59.5,172.2,59.3"/>
	<path class="st0" d="M176.3,60.1c-0.3-0.1-0.5-0.3-0.7-0.6c-0.2-0.2-0.3-0.5-0.3-0.8h0.8c0,0.3,0.1,0.5,0.3,0.7
		c0.2,0.2,0.5,0.3,0.9,0.3c0.4,0,0.6-0.1,0.9-0.3c0.2-0.2,0.3-0.4,0.3-0.7c0-0.2-0.1-0.4-0.2-0.5c-0.1-0.1-0.3-0.2-0.5-0.3
		c-0.2-0.1-0.4-0.2-0.7-0.2c-0.4-0.1-0.7-0.2-0.9-0.3c-0.2-0.1-0.4-0.3-0.6-0.5c-0.2-0.2-0.2-0.5-0.2-0.9c0-0.3,0.1-0.6,0.2-0.8
		c0.2-0.2,0.4-0.4,0.7-0.6c0.3-0.1,0.6-0.2,1-0.2c0.5,0,1,0.1,1.3,0.4c0.3,0.3,0.5,0.6,0.6,1.1h-0.8c0-0.2-0.1-0.4-0.4-0.6
		c-0.2-0.2-0.5-0.3-0.8-0.3c-0.3,0-0.6,0.1-0.8,0.2c-0.2,0.2-0.3,0.4-0.3,0.7c0,0.2,0.1,0.4,0.2,0.5c0.1,0.1,0.3,0.2,0.4,0.3
		c0.2,0.1,0.4,0.1,0.7,0.2c0.4,0.1,0.7,0.2,0.9,0.3c0.2,0.1,0.4,0.3,0.6,0.5c0.2,0.2,0.3,0.5,0.3,0.9c0,0.3-0.1,0.6-0.2,0.8
		c-0.2,0.3-0.4,0.5-0.7,0.6c-0.3,0.2-0.6,0.2-1,0.2C176.9,60.3,176.6,60.2,176.3,60.1"/>
	<path class="st0" d="M47.7,20.1c-0.2-0.7-0.4-1.5-0.7-2.4c-0.7-2.4-1.8-4.7-3.2-6.7c-0.7-1-1.4-1.9-2.2-2.7c0,0,0,0,0,0
		c-4.6-5-10.9-7.6-17.2-7.7c0,0,0,0,0,0c-0.1,0-0.3,0-0.4,0C15.7,0.5,8.4,4.6,4,11c-2.6,3.9-4.2,8.6-4.2,13.6c0,0.9,0.1,2.8,0.1,2.8
		c0.4,3.5,1.8,6.7,3.6,10.1c3.5,6.3,8,11.3,12.5,16.6c3.3,3.8,8,7.8,8,7.8s4.4-3.7,8.4-7.8c4.3-4.4,9.3-10.6,12.4-17.3
		c0.2-0.5,0.4-0.9,0.6-1.4c0-0.1,0.2-0.4,0.3-0.6h-5.4c-2.1,0-3,0.3-3.7,0.8c-0.5,0.5-1.1,1.1-1.7,1.5c-0.2,0.2-0.5,0.4-0.8,0.6
		c-0.9,0.6-1.8,1.2-2.9,1.6c-2.1,1-4.4,1.5-6.9,1.5c-3,0-5.8-0.8-8.3-2.2c-2.6-1.4-4.6-3.4-5.9-5.7c-1.6-2.5-2.5-5.5-2.5-8.7
		c0-9.2,7.5-16.7,16.7-16.7c1.1,0,2.1,0.1,3.2,0.3c0.6,0.1,1.3,0.3,1.9,0.5c5.5,1.7,9.8,6.3,11.2,12h-0.4h-1.4H24
		c0.2,5.1,3.9,7.2,7.7,7.2h9.1h3.4c1.1,0,2.8-0.3,3.6-2.4c0.2-0.4,0.3-0.9,0.3-1.3C48.2,22.3,47.9,21.3,47.7,20.1"/>
</g>
</svg>
