<?xml version="1.0" encoding="utf-8"?>
<!-- Generator: Adobe Illustrator 21.0.0, SVG Export Plug-In . SVG Version: 6.00 Build 0)  -->
<svg version="1.1" id="Capa_1" xmlns="http://www.w3.org/2000/svg" xmlns:xlink="http://www.w3.org/1999/xlink" x="0px" y="0px"
	 viewBox="0 0 14 14" style="enable-background:new 0 0 14 14;" xml:space="preserve">
<style type="text/css">
	.st0{fill:#FFFFFF;}
</style>
<path class="st0" d="M13.5,11.2L9.3,7l4.1-4.1c0.6-0.6,0.6-1.7,0-2.3s-1.7-0.6-2.3,0L7,4.7L2.8,0.5c-0.6-0.6-1.7-0.6-2.3,0
	s-0.6,1.7,0,2.3L4.7,7l-4.1,4.1c-0.6,0.6-0.6,1.7,0,2.3c0.6,0.6,1.7,0.6,2.3,0L7,9.3l4.2,4.2c0.6,0.6,1.7,0.6,2.3,0
	S14.1,11.8,13.5,11.2z"/>
</svg>
