<?xml version="1.0" encoding="utf-8"?>
<!-- Generator: Adobe Illustrator 21.0.0, SVG Export Plug-In . SVG Version: 6.00 Build 0)  -->
<svg version="1.1" id="Capa_1" xmlns="http://www.w3.org/2000/svg" xmlns:xlink="http://www.w3.org/1999/xlink" x="0px" y="0px"
	 viewBox="0 0 244 244" style="enable-background:new 0 0 244 244;" xml:space="preserve">
<style type="text/css">
	.st0{fill:#4A4595;}
</style>
<circle class="st0" cx="183.3" cy="60.9" r="5.7"/>
<circle class="st0" cx="61.7" cy="182.8" r="5.7"/>
<path class="st0" d="M85.2,68.2c-0.3-0.2-0.7-0.4-1.1-0.6c-1.1-0.6-2.4-1-3.7-1.3c-0.6-0.1-1.2-0.2-1.8-0.2c0,0,0,0,0,0
	c-3.5-0.1-6.8,1.2-9.2,3.5c0,0,0,0,0,0c-0.1,0-0.1,0.1-0.2,0.2c-3.1,3.1-4.2,7.3-3.5,11.3c0.5,2.4,1.6,4.7,3.5,6.6
	c0.3,0.3,1.1,1,1.1,1c1.4,1.2,3.2,1.8,5,2.4c3.6,1,7.1,1.2,10.8,1.5c2.6,0.2,5.9-0.1,5.9-0.1s0.3-3,0.2-6c0-3.3-0.5-7.4-1.8-11
	c-0.1-0.2-0.2-0.5-0.3-0.7c0-0.1-0.1-0.2-0.1-0.3l-2,2c-0.7,0.8-1,1.2-1.1,1.7c0,0.4,0,0.8,0,1.2c0,0.2,0,0.3,0,0.5
	c-0.1,0.6-0.2,1.1-0.5,1.7c-0.4,1.1-1.1,2.2-2,3.1c-1.1,1.1-2.5,1.9-3.9,2.3c-1.5,0.4-3,0.4-4.3,0.1c-1.5-0.4-3-1.1-4.2-2.3
	c-3.4-3.4-3.4-8.9,0-12.4c0.4-0.4,0.8-0.8,1.3-1.1c0.3-0.2,0.6-0.4,0.9-0.5c2.7-1.4,6-1.3,8.6,0.3L82.5,71L82,71.5L76.5,77
	c2,1.8,4.1,1.2,5.5-0.2l3.4-3.4l1.3-1.3c0.4-0.4,0.9-1.2,0.4-2.2c-0.1-0.2-0.2-0.4-0.4-0.6C86.2,68.8,85.8,68.5,85.2,68.2"/>
<path class="st0" d="M67.7,36.9c-0.2,0.3-0.4,0.7-0.6,1.1c-0.6,1.1-1,2.4-1.3,3.7c-0.1,0.6-0.2,1.2-0.2,1.8c0,0,0,0,0,0
	c-0.1,3.5,1.2,6.8,3.5,9.2c0,0,0,0,0,0c0,0.1,0.1,0.1,0.2,0.2c3.1,3.1,7.3,4.2,11.3,3.5c2.4-0.5,4.7-1.6,6.6-3.5
	c0.3-0.3,1-1.1,1-1.1c1.2-1.4,1.8-3.2,2.4-5c1-3.6,1.2-7.1,1.5-10.8c0.2-2.6-0.1-5.9-0.1-5.9s-3-0.3-6-0.2c-3.3,0-7.4,0.5-11,1.8
	c-0.2,0.1-0.5,0.2-0.7,0.3c-0.1,0-0.2,0.1-0.3,0.1l2,2c0.8,0.7,1.2,1,1.7,1.1c0.4,0,0.8,0,1.2,0c0.2,0,0.3,0,0.5,0
	c0.6,0.1,1.1,0.2,1.7,0.5c1.1,0.4,2.2,1.1,3.1,2c1.1,1.1,1.9,2.5,2.3,3.9c0.4,1.5,0.4,3,0.1,4.3c-0.4,1.5-1.1,3-2.3,4.2
	c-3.4,3.4-8.9,3.4-12.4,0c-0.4-0.4-0.8-0.8-1.1-1.3c-0.2-0.3-0.4-0.6-0.5-0.9c-1.4-2.7-1.3-6,0.3-8.6l0.2,0.2l0.5,0.5l5.5,5.5
	c1.8-2,1.2-4.1-0.2-5.5L73,36.8l-1.3-1.3c-0.4-0.4-1.2-0.9-2.2-0.4c-0.2,0.1-0.4,0.2-0.6,0.4C68.3,35.9,68.1,36.4,67.7,36.9"/>
<path class="st0" d="M37,54.5c0.3,0.2,0.7,0.4,1.1,0.6c1.1,0.6,2.4,1,3.7,1.3c0.6,0.1,1.2,0.2,1.8,0.2c0,0,0,0,0,0
	c3.5,0.1,6.8-1.2,9.2-3.5c0,0,0,0,0,0c0.1,0,0.1-0.1,0.2-0.2c3.1-3.1,4.2-7.3,3.5-11.3c-0.5-2.4-1.6-4.7-3.5-6.6
	c-0.3-0.3-1.1-1-1.1-1c-1.4-1.2-3.2-1.8-5-2.4c-3.6-1-7.1-1.2-10.8-1.5c-2.6-0.2-5.9,0.1-5.9,0.1s-0.3,3-0.2,6c0,3.3,0.5,7.4,1.8,11
	c0.1,0.2,0.2,0.5,0.3,0.7c0,0.1,0.1,0.2,0.1,0.3l2-2c0.7-0.8,1-1.2,1.1-1.7c0-0.4,0-0.8,0-1.2c0-0.2,0-0.3,0-0.5
	c0.1-0.6,0.2-1.1,0.5-1.7c0.4-1.1,1.1-2.2,2-3.1c1.1-1.1,2.5-1.9,3.9-2.3c1.5-0.4,3-0.4,4.3-0.1c1.5,0.4,3,1.1,4.2,2.3
	c3.4,3.4,3.4,8.9,0,12.4c-0.4,0.4-0.8,0.8-1.3,1.1c-0.3,0.2-0.6,0.4-0.9,0.5c-2.7,1.4-6,1.3-8.6-0.3l0.2-0.2l0.5-0.5l5.5-5.5
	c-2-1.8-4.1-1.2-5.5,0.2l-3.4,3.4l-1.3,1.3c-0.4,0.4-0.9,1.2-0.4,2.2c0.1,0.2,0.2,0.4,0.4,0.6C36,53.9,36.5,54.1,37,54.5"/>
<path class="st0" d="M54.3,85.7c0.2-0.3,0.4-0.7,0.6-1.1c0.6-1.1,1-2.4,1.3-3.7c0.1-0.6,0.2-1.2,0.2-1.8c0,0,0,0,0,0
	c0.1-3.5-1.2-6.8-3.5-9.2c0,0,0,0,0,0c0-0.1-0.1-0.1-0.2-0.2c-3.1-3.1-7.3-4.2-11.3-3.5c-2.4,0.5-4.7,1.6-6.6,3.5
	c-0.3,0.3-1,1.1-1,1.1c-1.2,1.4-1.8,3.2-2.4,5c-1,3.6-1.2,7.1-1.5,10.8c-0.2,2.6,0.1,5.9,0.1,5.9s3,0.3,6,0.2c3.3,0,7.4-0.5,11-1.8
	c0.2-0.1,0.5-0.2,0.7-0.3c0.1,0,0.2-0.1,0.3-0.1l-2-2c-0.8-0.7-1.2-1-1.7-1.1c-0.4,0-0.8,0-1.2,0c-0.2,0-0.3,0-0.5,0
	c-0.6-0.1-1.1-0.2-1.7-0.5c-1.1-0.4-2.2-1.1-3.1-2c-1.1-1.1-1.9-2.5-2.3-3.9c-0.4-1.5-0.4-3-0.1-4.3c0.4-1.5,1.1-3,2.3-4.2
	c3.4-3.4,8.9-3.4,12.4,0c0.4,0.4,0.8,0.8,1.1,1.3c0.2,0.3,0.4,0.6,0.5,0.9c1.4,2.7,1.3,6-0.3,8.6l-0.2-0.2L51,82.4l-5.5-5.5
	c-1.8,2-1.2,4.1,0.2,5.5l3.4,3.4l1.3,1.3c0.4,0.4,1.2,0.9,2.2,0.4c0.2-0.1,0.4-0.2,0.6-0.4C53.7,86.7,54,86.2,54.3,85.7"/>
<g>
	<path class="st0" d="M207.1,189.6c-0.3-0.2-0.7-0.4-1.1-0.6c-1.1-0.6-2.4-1-3.7-1.3c-0.6-0.1-1.2-0.2-1.8-0.2c0,0,0,0,0,0
		c-3.5-0.1-6.8,1.2-9.2,3.5c0,0,0,0,0,0c-0.1,0-0.1,0.1-0.2,0.2c-3.1,3.1-4.2,7.3-3.5,11.3c0.5,2.4,1.6,4.7,3.5,6.6
		c0.3,0.3,1.1,1,1.1,1c1.4,1.2,3.2,1.8,5,2.4c3.6,1,7.1,1.2,10.8,1.5c2.6,0.2,5.9-0.1,5.9-0.1s0.3-3,0.2-6c0-3.3-0.5-7.4-1.8-11
		c-0.1-0.2-0.2-0.5-0.3-0.7c0-0.1-0.1-0.2-0.1-0.3l-2,2c-0.7,0.8-1,1.2-1.1,1.7c0,0.4,0,0.8,0,1.2c0,0.2,0,0.3,0,0.5
		c-0.1,0.6-0.2,1.1-0.5,1.7c-0.4,1.1-1.1,2.2-2,3.1c-1.1,1.1-2.5,1.9-3.9,2.3c-1.5,0.4-3,0.4-4.3,0.1c-1.5-0.4-3-1.1-4.2-2.3
		c-3.4-3.4-3.4-8.9,0-12.4c0.4-0.4,0.8-0.8,1.3-1.1c0.3-0.2,0.6-0.4,0.9-0.5c2.7-1.4,6-1.3,8.6,0.3l-0.2,0.2l-0.5,0.5l-5.5,5.5
		c2,1.8,4.1,1.2,5.5-0.2l3.4-3.4l1.3-1.3c0.4-0.4,0.9-1.2,0.4-2.2c-0.1-0.2-0.2-0.4-0.4-0.6C208.1,190.2,207.6,190,207.1,189.6"/>
	<path class="st0" d="M189.6,158.4c-0.2,0.3-0.4,0.7-0.6,1.1c-0.6,1.1-1,2.4-1.3,3.7c-0.1,0.6-0.2,1.2-0.2,1.8c0,0,0,0,0,0
		c-0.1,3.5,1.2,6.8,3.5,9.2c0,0,0,0,0,0c0,0.1,0.1,0.1,0.2,0.2c3.1,3.1,7.3,4.2,11.3,3.5c2.4-0.5,4.7-1.6,6.6-3.5
		c0.3-0.3,1-1.1,1-1.1c1.2-1.4,1.8-3.2,2.4-5c1-3.6,1.2-7.1,1.5-10.8c0.2-2.6-0.1-5.9-0.1-5.9s-3-0.3-6-0.2c-3.3,0-7.4,0.5-11,1.8
		c-0.2,0.1-0.5,0.2-0.7,0.3c-0.1,0-0.2,0.1-0.3,0.1l2,2c0.8,0.7,1.2,1,1.7,1.1c0.4,0,0.8,0,1.2,0c0.2,0,0.3,0,0.5,0
		c0.6,0.1,1.1,0.2,1.7,0.5c1.1,0.4,2.2,1.1,3.1,2c1.1,1.1,1.9,2.5,2.3,3.9c0.4,1.5,0.4,3,0.1,4.3c-0.4,1.5-1.1,3-2.3,4.2
		c-3.4,3.4-8.9,3.4-12.4,0c-0.4-0.4-0.8-0.8-1.1-1.3c-0.2-0.3-0.4-0.6-0.5-0.9c-1.4-2.7-1.3-6,0.3-8.6l0.2,0.2l0.5,0.5l5.5,5.5
		c1.8-2,1.2-4.1-0.2-5.5l-3.4-3.4l-1.3-1.3c-0.4-0.4-1.2-0.9-2.2-0.4c-0.2,0.1-0.4,0.2-0.6,0.4C190.2,157.4,189.9,157.9,189.6,158.4
		"/>
	<path class="st0" d="M158.9,175.9c0.3,0.2,0.7,0.4,1.1,0.6c1.1,0.6,2.4,1,3.7,1.3c0.6,0.1,1.2,0.2,1.8,0.2c0,0,0,0,0,0
		c3.5,0.1,6.8-1.2,9.2-3.5c0,0,0,0,0,0c0.1,0,0.1-0.1,0.2-0.2c3.1-3.1,4.2-7.3,3.5-11.3c-0.5-2.4-1.6-4.7-3.5-6.6
		c-0.3-0.3-1.1-1-1.1-1c-1.4-1.2-3.2-1.8-5-2.4c-3.6-1-7.1-1.2-10.8-1.5c-2.6-0.2-5.9,0.1-5.9,0.1s-0.3,3-0.2,6
		c0,3.3,0.5,7.4,1.8,11c0.1,0.2,0.2,0.5,0.3,0.7c0,0.1,0.1,0.2,0.1,0.3l2-2c0.7-0.8,1-1.2,1.1-1.7c0-0.4,0-0.8,0-1.2
		c0-0.2,0-0.3,0-0.5c0.1-0.6,0.2-1.1,0.5-1.7c0.4-1.1,1.1-2.2,2-3.1c1.1-1.1,2.5-1.9,3.9-2.3c1.5-0.4,3-0.4,4.3-0.1
		c1.5,0.4,3,1.1,4.2,2.3c3.4,3.4,3.4,8.9,0,12.4c-0.4,0.4-0.8,0.8-1.3,1.1c-0.3,0.2-0.6,0.4-0.9,0.5c-2.7,1.4-6,1.3-8.6-0.3l0.2-0.2
		l0.5-0.5l5.5-5.5c-2-1.8-4.1-1.2-5.5,0.2l-3.4,3.4l-1.3,1.3c-0.4,0.4-0.9,1.2-0.4,2.2c0.1,0.2,0.2,0.4,0.4,0.6
		C157.9,175.3,158.3,175.6,158.9,175.9"/>
	<path class="st0" d="M176.2,207.1c0.2-0.3,0.4-0.7,0.6-1.1c0.6-1.1,1-2.4,1.3-3.7c0.1-0.6,0.2-1.2,0.2-1.8c0,0,0,0,0,0
		c0.1-3.5-1.2-6.8-3.5-9.2c0,0,0,0,0,0c0-0.1-0.1-0.1-0.2-0.2c-3.1-3.1-7.3-4.2-11.3-3.5c-2.4,0.5-4.7,1.6-6.6,3.5
		c-0.3,0.3-1,1.1-1,1.1c-1.2,1.4-1.8,3.2-2.4,5c-1,3.6-1.2,7.1-1.5,10.8c-0.2,2.6,0.1,5.9,0.1,5.9s3,0.3,6,0.2c3.3,0,7.4-0.5,11-1.8
		c0.2-0.1,0.5-0.2,0.7-0.3c0.1,0,0.2-0.1,0.3-0.1l-2-2c-0.8-0.7-1.2-1-1.7-1.1c-0.4,0-0.8,0-1.2,0c-0.2,0-0.3,0-0.5,0
		c-0.6-0.1-1.1-0.2-1.7-0.5c-1.1-0.4-2.2-1.1-3.1-2c-1.1-1.1-1.9-2.5-2.3-3.9c-0.4-1.5-0.4-3-0.1-4.3c0.4-1.5,1.1-3,2.3-4.2
		c3.4-3.4,8.9-3.4,12.4,0c0.4,0.4,0.8,0.8,1.1,1.3c0.2,0.3,0.4,0.6,0.5,0.9c1.4,2.7,1.3,6-0.3,8.6l-0.2-0.2l-0.5-0.5l-5.5-5.5
		c-1.8,2-1.2,4.1,0.2,5.5l3.4,3.4l1.3,1.3c0.4,0.4,1.2,0.9,2.2,0.4c0.2-0.1,0.4-0.2,0.6-0.4C175.6,208.1,175.8,207.7,176.2,207.1"/>
</g>
</svg>
